<?xml version="1.0" standalone="no"?>
<!DOCTYPE svg PUBLIC "-//W3C//DTD SVG 20010904//EN"
 "http://www.w3.org/TR/2001/REC-SVG-20010904/DTD/svg10.dtd">
<svg version="1.0" xmlns="http://www.w3.org/2000/svg"
 width="95.000000pt" height="95.000000pt" viewBox="0 0 95.000000 95.000000"
 preserveAspectRatio="xMidYMid meet">
<metadata>
Created by potrace 1.14, written by Peter Selinger 2001-2017
</metadata>
<g transform="translate(0.000000,95.000000) scale(0.100000,-0.100000)"
fill="#000000" stroke="none">
<path d="M458 832 c-4 -15 -14 -22 -29 -22 -22 0 -22 -1 -4 -14 12 -8 16 -20
12 -35 -6 -23 3 -27 20 -10 8 8 17 8 31 0 18 -9 19 -8 14 11 -3 14 1 26 13 34
18 13 18 14 -2 14 -11 0 -27 10 -35 22 l-15 22 -5 -22z"/>
<path d="M296 725 c-3 -8 -15 -15 -28 -15 -21 0 -21 -1 -3 -14 12 -8 16 -20
13 -34 -5 -19 -3 -20 13 -11 13 6 25 6 38 0 16 -9 18 -8 13 11 -3 14 1 26 13
34 18 13 18 14 -3 14 -13 0 -25 7 -28 15 -4 8 -10 15 -14 15 -4 0 -10 -7 -14
-15z"/>
<path d="M406 590 l-58 -89 -18 22 c-12 14 -22 19 -28 12 -5 -5 -75 -108 -156
-227 l-147 -218 471 0 c381 0 469 2 463 13 -4 7 -57 85 -117 174 l-109 162
-19 -22 c-11 -12 -21 -17 -24 -11 -11 26 -180 268 -189 271 -5 1 -36 -38 -69
-87z"/>
<path d="M701 662 c-6 -12 -21 -22 -34 -22 -20 -1 -21 -1 -4 -11 14 -8 17 -18
13 -35 -6 -23 -5 -24 14 -14 14 7 26 8 39 1 16 -9 18 -8 13 11 -3 14 1 26 13
34 18 13 18 14 -3 14 -14 0 -26 8 -31 22 l-8 22 -12 -22z"/>
</g>
</svg>
